<svg width="400" height="256" viewBox="0 0 400 256" fill="none" xmlns="http://www.w3.org/2000/svg">
<path d="M96.8739 204.686C96.8739 232.152 76.315 254.417 47.1879 254.417C18.0607 254.417 0 232.152 0 204.686C0 177.22 18.0607 154.954 47.1879 154.954C76.315 154.954 96.8739 177.22 96.8739 204.686Z" fill="#E9F6FF"/>
<path d="M41.0434 3.2629C62.9953 3.27435 83.8708 3.46704 110.64 3.4709C129.504 3.47337 132.846 10.9805 138.685 21.5436C160.929 61.7814 190.448 114.732 207.023 143.003C224.978 173.63 190.193 114.105 230.737 186.194C271.281 258.283 277.654 252.807 217.626 252.799C176.955 252.793 180.007 252.647 168.207 252.792C155.278 252.942 146.697 252.731 138.958 239.143C124.797 214.282 111.241 188.977 97.2112 164.031L48.6296 77.9763C40.5821 63.6889 30.8519 46.3944 21.6721 29.1178C7.97242 5.18893 23.1984 3.28592 28.8067 3.26119C34.4151 3.23647 36.6941 3.26063 41.0434 3.2629Z" fill="#E9F6FF"/>
<path d="M179.045 3.25941C200.997 3.26781 221.872 3.45761 248.641 3.45775C267.505 3.4576 270.846 10.9643 276.684 21.5266C298.922 61.7614 328.435 114.708 345.005 142.977C362.957 173.601 328.18 114.081 368.714 186.165C409.248 258.249 415.621 252.772 355.594 252.772C314.924 252.772 317.975 252.625 306.175 252.772C293.246 252.924 284.665 252.714 276.928 239.127C262.77 214.267 249.218 188.964 235.191 164.02L186.622 77.972C178.576 63.6857 168.848 46.3925 159.671 29.1171C145.974 5.19005 161.2 3.28491 166.809 3.25941C172.417 3.23391 174.696 3.25775 179.045 3.25941Z" fill="#E9F6FF"/>
</svg>
